<svg xmlns="http://www.w3.org/2000/svg" viewBox="0 0 940 260" fill="none" role="img" aria-labelledby="title desc">
  <title id="title">Makit monochrome logo</title>
  <desc id="desc">Makit logo and the tagline Markdown-based static site generator and documentation platform.</desc>
  <g transform="translate(0 12) scale(.92)" fill="#0F172A">
    <path d="M26 73a10 10 0 0 1 15-8.6l30 17.1v114.6L41 213.3A10 10 0 0 1 26 204.7V73Z"/>
    <path d="M55 45a10 10 0 0 1 15-8.6l42 24v137.2l-42 24A10 10 0 0 1 55 213V45Z"/>
    <path d="M89 28.1a10 10 0 0 1 12.2.5l45.8 35.5 45.8-35.5a10 10 0 0 1 16.2 7.9v157.8a10 10 0 0 1-7.8 9.8l-104 22.2a10 10 0 0 1-12.2-9.8V36a10 10 0 0 1 4-7.9Z"/>
    <path d="m147 64 62-35.5v165.8a10 10 0 0 1-7.8 9.8L147 215V64Z" opacity=".18"/>
    <path fill="#fff" d="m174 31 35 33v34h-35a10 10 0 0 1-10-10V52.5l10-21.5Z"/>
    <path fill="#fff" d="m174 31 35 33h-35V31Z" opacity=".75"/>
    <g stroke="#fff" stroke-linecap="round" stroke-linejoin="round" stroke-width="9"><path d="M123 92v82M123 130h45"/><path d="M168 130v18"/></g>
    <g fill="#fff"><rect x="109" y="76" width="28" height="28" rx="3"/><rect x="154" y="116" width="28" height="28" rx="3"/><rect x="109" y="174" width="28" height="28" rx="3"/></g>
  </g>
  <text x="250" y="123" fill="#0F172A" font-family="Inter, ui-sans-serif, system-ui, sans-serif" font-size="112" font-weight="750" letter-spacing="-5">Makit</text>
  <circle cx="469" cy="48" r="13" fill="#0F172A"/>
  <text x="254" y="181" fill="#475569" font-family="Inter, ui-sans-serif, system-ui, sans-serif" font-size="27" letter-spacing=".2">Markdown-based static site generator</text>
  <text x="254" y="216" fill="#475569" font-family="Inter, ui-sans-serif, system-ui, sans-serif" font-size="27" letter-spacing=".2">and documentation platform</text>
</svg>
