<svg xmlns="http://www.w3.org/2000/svg" viewBox="0 0 940 260" fill="none" role="img" aria-labelledby="title desc">
  <title id="title">Makit</title>
  <desc id="desc">Makit logo and the tagline Markdown-based static site generator and documentation platform.</desc>
  <g transform="translate(0 12) scale(.92)">
    <defs>
      <linearGradient id="front" x1="62" y1="28" x2="190" y2="209" gradientUnits="userSpaceOnUse"><stop stop-color="#2554B8"/><stop offset="1" stop-color="#123789"/></linearGradient>
      <linearGradient id="teal" x1="43" y1="54" x2="117" y2="196" gradientUnits="userSpaceOnUse"><stop stop-color="#1BC5B4"/><stop offset="1" stop-color="#0B9A90"/></linearGradient>
    </defs>
    <path fill="#7177EA" d="M26 73a10 10 0 0 1 15-8.6l30 17.1v114.6L41 213.3A10 10 0 0 1 26 204.7V73Z"/><path fill="url(#teal)" d="M55 45a10 10 0 0 1 15-8.6l42 24v137.2l-42 24A10 10 0 0 1 55 213V45Z"/><path fill="url(#front)" d="M89 28.1a10 10 0 0 1 12.2.5l45.8 35.5 45.8-35.5a10 10 0 0 1 16.2 7.9v157.8a10 10 0 0 1-7.8 9.8l-104 22.2a10 10 0 0 1-12.2-9.8V36a10 10 0 0 1 4-7.9Z"/><path fill="#0E317D" d="m147 64 62-35.5v165.8a10 10 0 0 1-7.8 9.8L147 215V64Z" opacity=".55"/><path fill="#E8EEFF" d="m174 31 35 33v34h-35a10 10 0 0 1-10-10V52.5l10-21.5Z"/><path fill="#C9D2E9" d="m174 31 35 33h-35V31Z"/><g stroke="#fff" stroke-linecap="round" stroke-linejoin="round" stroke-width="9"><path d="M123 92v82M123 130h45"/><path d="M168 130v18"/></g><g fill="#fff"><rect x="109" y="76" width="28" height="28" rx="3"/><rect x="154" y="116" width="28" height="28" rx="3"/><rect x="109" y="174" width="28" height="28" rx="3"/></g>
  </g>
  <text x="250" y="123" fill="#0F172A" font-family="Inter, ui-sans-serif, system-ui, sans-serif" font-size="112" font-weight="750" letter-spacing="-5">Makit</text>
  <circle cx="469" cy="48" r="13" fill="#14B8A6"/>
  <text x="254" y="181" fill="#475569" font-family="Inter, ui-sans-serif, system-ui, sans-serif" font-size="27" letter-spacing=".2">Markdown-based static site generator</text>
  <text x="254" y="216" fill="#475569" font-family="Inter, ui-sans-serif, system-ui, sans-serif" font-size="27" letter-spacing=".2">and documentation platform</text>
</svg>
