<svg xmlns="http://www.w3.org/2000/svg" viewBox="0 0 660 180" fill="none" role="img" aria-labelledby="title">
  <title id="title">Makit monochrome logo</title>
  <g fill="currentColor">
    <path d="M20 49a7 7 0 0 1 10.5-6.1l21 12.1v75.8l-21 12.1A7 7 0 0 1 20 136.8V49ZM40 33a7 7 0 0 1 10.5-6.1L76 41.6v90.8l-25.5 14.7A7 7 0 0 1 40 141V33Z" opacity=".7"/>
    <path d="M64 19.7a7 7 0 0 1 8.5.4L104 44.5l31.5-24.4A7 7 0 0 1 147 25.7V136a7 7 0 0 1-5.5 6.8L70 158a7 7 0 0 1-8.5-6.8V25.3a7 7 0 0 1 2.5-5.6Z"/>
    <path d="m104 44.5 43-24.4V136a7 7 0 0 1-5.5 6.8L104 151V44.5Z" opacity=".35"/>
    <path d="M122 22.5 147 45v22h-25a7 7 0 0 1-7-7V38l7-15.5Z" fill="#fff" opacity=".85"/>
    <path d="M87 63v58m0-29h31m0 0v12" stroke="#fff" stroke-linecap="round" stroke-width="6"/><rect x="78" y="53" width="18" height="18" rx="2" fill="#fff"/><rect x="109" y="83" width="18" height="18" rx="2" fill="#fff"/><rect x="78" y="121" width="18" height="18" rx="2" fill="#fff"/>
  </g>
  <text x="180" y="119" fill="currentColor" font-family="Inter, ui-sans-serif, system-ui, sans-serif" font-size="100" font-weight="750" letter-spacing="-4">Makit</text>
</svg>
